<?xml version="1.0" standalone="no"?>
<!DOCTYPE svg PUBLIC "-//W3C//DTD SVG 20010904//EN"
 "http://www.w3.org/TR/2001/REC-SVG-20010904/DTD/svg10.dtd">
<svg version="1.0" xmlns="http://www.w3.org/2000/svg"
 width="250.000000pt" height="250.000000pt" viewBox="0 0 250.000000 250.000000"
 preserveAspectRatio="xMidYMid meet">
<metadata>
Created by potrace 1.11, written by Peter Selinger 2001-2013
</metadata>
<g transform="translate(0.000000,250.000000) scale(0.100000,-0.100000)"
fill="#000000" stroke="none">
<path d="M146 2147 c-54 -30 -78 -67 -84 -125 -6 -68 10 -94 122 -197 l96 -88
2 -642 3 -641 25 -37 c34 -50 90 -79 150 -79 52 1 81 12 118 46 54 48 52 23
52 760 0 602 -2 690 -16 725 -16 40 -201 223 -268 266 -17 11 -32 23 -34 27
-2 5 -31 8 -65 8 -46 0 -72 -6 -101 -23z"/>
<path d="M1442 2155 c-445 -79 -777 -502 -749 -953 25 -391 282 -713 662 -828
82 -25 105 -27 250 -28 147 0 168 2 250 28 123 37 278 125 362 205 20 19 34
21 133 21 70 0 110 4 108 10 -1 5 -76 92 -164 192 -89 101 -225 255 -302 343
l-141 159 57 61 c31 33 140 148 242 255 102 107 210 221 240 253 l54 58 -115
-2 -116 -1 -69 51 c-92 68 -231 136 -329 161 -105 28 -265 34 -373 15z"/>
</g>
</svg>
