<svg width="301" height="42" viewBox="0 0 301 42" xmlns="http://www.w3.org/2000/svg"><title>An Event Apart</title><g fill="none" fill-rule="evenodd"><path d="M65.455 32.615h-6.754l-1.967-5.688h-9.918l-1.924 5.688h-6.755l9.491-26.721h8.508l9.319 26.721zM51.817 11.152l-3.548 10.475h6.968l-3.42-10.475zm27.055 21.463V20.858c0-2.395-1.069-3.164-2.822-3.164-1.454 0-2.736.727-3.592 1.496v13.425h-6.584V13.076l6.584-.812v3.249c1.754-2.01 4.104-3.42 6.67-3.42 3.976 0 6.327 2.607 6.327 6.841v13.681h-6.583zm15.485 0V5.895h19.539v5.472h-12.869v5.131h10.346v5.43h-10.346v5.217h12.869v5.473H94.357v-.003zm34.716.041h-7.438l-7.354-19.921h7.053l4.105 13.637 4.061-13.637h7.097l-7.524 19.921zm13.244-8.677c.257 2.692 2.309 4.189 5.387 4.189 2.053 0 4.36-.598 6.373-1.753l.938 5.173c-2.01 1.027-4.833 1.625-7.739 1.625-6.712 0-11.415-3.763-11.415-10.389 0-6.499 4.446-10.73 10.773-10.73 5.645 0 8.723 3.377 8.723 8.336 0 1.069-.17 2.479-.428 3.333l-12.613.131v.085h.001zm6.926-3.207v-.3c0-2.352-.982-3.933-3.036-3.933-2.265 0-3.633 2.051-3.847 4.275l6.883-.042zm21.292 11.843V20.858c0-2.395-1.066-3.164-2.822-3.164-1.451 0-2.734.727-3.59 1.496v13.425h-6.584V13.076l6.584-.812v3.249c1.753-2.01 4.104-3.42 6.67-3.42 3.977 0 6.328 2.607 6.328 6.841v13.681h-6.586zm56.283 0h-6.754l-1.969-5.688h-9.916l-1.925 5.688H199.5l9.491-26.721h8.506l9.321 26.721zm-13.636-21.463l-3.549 10.475h6.969l-3.42-10.475zm26.132.942c4.918 0 8.506 4.019 8.506 10.346 0 6.584-4.572 10.773-9.959 10.773-1.325 0-2.863-.257-4.104-.641v8.891h-6.584V13.076l6.584-.812v2.522c1.241-1.282 3.034-2.692 5.557-2.692zm-5.557 15.39c.769.513 1.796.812 3.034.812 2.82 0 4.447-2.223 4.447-5.516 0-3.418-1.453-5.429-4.147-5.429-1.452 0-2.437.556-3.334 1.368v8.765zm26.55-7.182c0-2.094-1.068-3.035-3.506-3.035-2.053 0-4.787 1.025-6.755 2.009l-1.368-4.831c2.094-1.111 5.387-2.351 9.149-2.351 6.884 0 9.065 3.078 9.065 8.636v6.284c0 2.438.639 3.678 2.135 5.217l-6.498 1.026c-1.155-.558-1.922-1.926-2.094-3.037h-.131c-1.41 1.667-3.332 3.037-5.941 3.037-3.547 0-5.812-2.481-5.812-5.474 0-3.848 2.82-6.84 11.756-7.054v-.427zm0 3.207c-4.062.599-5.559 1.538-5.559 3.292 0 1.281 1.025 2.053 2.523 2.053 1.281 0 2.352-.516 3.033-1.197V23.51h.003v-.001zm16.461 9.106h-6.584V13.076l6.584-.812v3.334c1.111-2.137 2.564-3.42 4.789-3.505 1.195 0 2.523.256 3.59.854l-1.326 5.9a5.62 5.62 0 0 0-2.521-.6c-1.624 0-3.333.898-4.529 3.164v11.204h-.003zm18.896.642c-4.918 0-7.566-2.011-7.311-7.227l.299-7.566-2.992-.514.912-4.447 2.209-.726.084-4.531h6.371l-.043 4.745h4.959l-.129 5.173h-5.301l-.213 7.141c-.086 1.838.983 2.607 2.606 2.607.812 0 1.71-.215 2.608-.514l.771 5.129c-1.537.471-2.819.73-4.83.73zm-107.295 0c-4.916 0-7.567-2.011-7.311-7.227l.299-7.566-2.992-.514.914-4.447 2.207-.726.086-4.531h6.371l-.045 4.745h4.959l-.129 5.173h-5.299l-.216 7.141c-.086 1.838.981 2.607 2.609 2.607.812 0 1.708-.215 2.606-.514l.77 5.129c-1.537.471-2.819.73-4.829.73z" fill="#FFF"/><path d="M26.377 33.172c0-.001.852-.109 1.651-.107.587-1.03 1.972-3.607 3.307-6.899 1.615-3.979-.675-8.897-.904-10.727-.231-1.83-.261-3.656-.261-3.656l-.639-.527s-4.479 6.856-5.005 10.984c-.525 4.131 1.851 10.932 1.851 10.932zm-5.185-4.867c-2.903-1.828-6.215-4.018-8.421-8.088-2.655-4.902-.972-11.542-1.056-13.932-.083-2.392-.421-4.739-.421-4.739l.71-.807s7.156 7.855 8.683 13.042c1.524 5.185-.995 10.461.505 14.524zm2.325 5.293c-2.573.609-6.988 3.18-11.424 1.45C7.657 33.32.496 26.527.496 26.527l.03-1.104s5.839-.329 9.5.588c4.038 1.014 8.146 5.489 13.491 7.587zm-6.342 7.605s2.487-.751 4.638-.671c2.236.084 5.094 1.101 8.225.331 5.596-1.377 6.621-4.803 7.12-5.551-4.089 1.715-9.424-.547-13.657.811-3.701 1.186-6.326 5.08-6.326 5.08z" fill="#978E51"/></g></svg>