<svg xmlns="http://www.w3.org/2000/svg" width="34.2" height="37.7" viewBox="0 0 34.2 37.7"><defs><style>.a{fill:#e40}</style></defs><title>o</title><path class="a" d="M24.2 30.2h1.5a56.9 56.9 0 0 0 3.1-6.4c1.5-3.7-.6-8.3-.8-10s-.2-3.4-.2-3.4l-.6-.5s-4.2 6.4-4.7 10.2 1.7 10.2 1.7 10.2zm-4.9-4.5c-2.7-1.7-5.8-3.7-7.9-7.5s-.9-10.8-1-13S10 .8 10 .8l.7-.8s6.7 7.3 8.1 12.2-.9 9.8.5 13.5zm2.2 4.9c-2.4.6-6.5 3-10.7 1.4S0 24 0 24v-1a37.5 37.5 0 0 1 8.9.5c3.8.9 7.6 5.1 12.6 7.1zm-5.9 7.1a15.7 15.7 0 0 1 4.3-.6c2.1.1 4.8 1 7.7.3 5.2-1.3 6.2-4.5 6.6-5.2-3.8 1.6-8.8-.5-12.7.8s-5.9 4.7-5.9 4.7z"/></svg>