<svg width="259" height="43" viewBox="0 0 259 43" xmlns="http://www.w3.org/2000/svg" xmlns:xlink="http://www.w3.org/1999/xlink"><title>Microsoft Edge</title><defs><path id="a" d="M.028-.046h258.82V42H.027"/><path id="c" d="M.028-.046h258.82V42H.027"/><path id="e" d="M.028-.046h258.82V42H.027"/></defs><g fill="none" fill-rule="evenodd"><g transform="translate(0 1)"><mask id="b" fill="#fff"><use xlink:href="#a"/></mask><path d="M30.52 31.981h-3.5s.096-23.538.29-25.846h-.083a18.455 18.455 0 0 1-.897 2.894L16.127 31.981h-1.71L4.194 9.204a17.119 17.119 0 0 1-.897-3.06h-.084c.111 1.191.167 25.847.167 25.847H0V2.124h4.625S14.957 25.718 15.17 26.526h.148c.69-1.915 10.809-24.402 10.809-24.402h4.393v29.857" fill="#FFF" mask="url(#b)"/></g><path d="M40.177 32.977h-3.413V11.658h3.423v21.323l-.01-.004zM40.76 4.02c.016.6-.227 1.18-.666 1.592a2.316 2.316 0 0 1-3.173 0 2.121 2.121 0 0 1-.647-1.615c0-.576.229-1.127.638-1.533a2.127 2.127 0 0 1 1.596-.655 2.184 2.184 0 0 1 1.605.646c.422.409.656.973.647 1.56v.005zm19.592 27.983a11.122 11.122 0 0 1-5.865 1.5 10.307 10.307 0 0 1-5.235-1.348 9.272 9.272 0 0 1-3.622-3.798 11.658 11.658 0 0 1-1.295-5.539c0-3.526 1.012-6.357 3.034-8.492 2.023-2.136 4.718-3.205 8.085-3.208 1.71-.034 3.405.338 4.944 1.085V15.7a8.769 8.769 0 0 0-5.088-1.666 6.845 6.845 0 0 0-5.392 2.363c-1.385 1.576-2.077 3.612-2.077 6.111 0 2.498.657 4.463 1.97 5.894 1.314 1.443 3.076 2.165 5.287 2.165a8.662 8.662 0 0 0 5.254-1.796v3.23m15.151-16.886a4.283 4.283 0 0 0-2.608-.687c-1.517 0-2.75.71-3.7 2.132-.95 1.421-1.423 3.268-1.42 5.538v10.879h-3.423V11.658h3.423v4.394h.083a7.518 7.518 0 0 1 2.206-3.484 5.045 5.045 0 0 1 3.4-1.284 5.59 5.59 0 0 1 2.044.291v3.54h-.005M93.42 22.37c0-2.676-.595-4.73-1.785-6.16-1.19-1.432-2.886-2.146-5.087-2.142-2.199 0-3.938.732-5.217 2.196-1.28 1.465-1.92 3.53-1.92 6.194 0 2.554.643 4.554 1.929 6 1.286 1.446 3.02 2.165 5.203 2.156 2.226 0 3.93-.708 5.11-2.123 1.181-1.416 1.772-3.45 1.772-6.102m3.501-.152c0 3.384-.963 6.109-2.89 8.174-1.928 2.064-4.511 3.095-7.752 3.092-3.157 0-5.678-1.003-7.562-3.01-1.884-2.006-2.826-4.646-2.826-7.92 0-3.525.967-6.312 2.9-8.358 1.933-2.046 4.597-3.069 7.992-3.069 3.17 0 5.652.99 7.446 2.968 1.795 1.978 2.692 4.689 2.692 8.132m15.808 5.031a5.535 5.535 0 0 1-2.136 4.495c-1.425 1.15-3.32 1.726-5.684 1.726a10.546 10.546 0 0 1-5.3-1.292v-3.66a8.635 8.635 0 0 0 5.55 2.04c2.713 0 4.07-.992 4.07-2.977a2.604 2.604 0 0 0-.782-1.97c-.53-.506-1.733-1.189-3.608-2.05-1.893-.806-3.228-1.67-4.005-2.594a5.53 5.53 0 0 1-1.17-3.692 5.534 5.534 0 0 1 2.127-4.412 8.158 8.158 0 0 1 5.402-1.768 10.27 10.27 0 0 1 4.556 1.034v3.415a7.999 7.999 0 0 0-4.843-1.518 4.207 4.207 0 0 0-2.724.83 2.628 2.628 0 0 0-1.031 2.142 2.871 2.871 0 0 0 .795 2.174c.531.508 1.622 1.108 3.275 1.8 2.029.874 3.455 1.772 4.278 2.695a5.232 5.232 0 0 1 1.23 3.559" fill="#FFF"/><g transform="translate(0 1)"><mask id="d" fill="#fff"><use xlink:href="#c"/></mask><path d="M132.483 21.37c0-2.676-.595-4.73-1.785-6.16-1.19-1.432-2.886-2.146-5.088-2.142-2.198 0-3.937.732-5.217 2.196-1.28 1.465-1.919 3.53-1.919 6.194 0 2.554.643 4.554 1.929 6 1.285 1.446 3.02 2.165 5.203 2.156 2.226 0 3.93-.708 5.11-2.123 1.181-1.416 1.776-3.46 1.786-6.13m3.487-.124c0 3.384-.964 6.109-2.89 8.174-1.928 2.064-4.512 3.095-7.752 3.092-3.158 0-5.678-1.003-7.562-3.01-1.884-2.006-2.826-4.646-2.826-7.92 0-3.525.967-6.312 2.9-8.358 1.933-2.046 4.597-3.069 7.992-3.069 3.17 0 5.652.99 7.446 2.968 1.795 1.978 2.692 4.689 2.692 8.132M149.92 3.417a4.557 4.557 0 0 0-2.276-.568c-2.387 0-3.58 1.507-3.58 4.523v3.29h5.009v2.895h-5.009v18.42h-3.422V13.552h-3.631v-2.894h3.63V7.201c0-2.154.64-3.901 1.92-5.243a6.48 6.48 0 0 1 4.88-1.998 6.694 6.694 0 0 1 2.483.374v3.083h-.005" fill="#FFF" mask="url(#d)"/></g><path d="M161.491 32.77a6.564 6.564 0 0 1-3.214.687c-3.728 0-5.592-2.096-5.592-6.286V14.552h-3.672v-2.894h3.672V6.457l3.423-1.103v6.304h5.383v2.894h-5.402V26.59c0 1.43.244 2.448.73 3.05.488.604 1.302.911 2.443.924a3.644 3.644 0 0 0 2.21-.688v2.917l.02-.023m28.526.207h-15.854V3.124h15.17v3.162h-11.665v9.932h10.804v3.166H177.67v10.431h12.35v3.162" fill="#FFF"/><g transform="translate(0 1)"><mask id="f" fill="#fff"><use xlink:href="#e"/></mask><path d="M208.814 22.34v-3.143a5.924 5.924 0 0 0-1.762-4.394 5.86 5.86 0 0 0-4.287-1.75 5.937 5.937 0 0 0-4.907 2.258c-1.212 1.52-1.818 3.625-1.818 6.318 0 2.443.57 4.375 1.711 5.797a5.601 5.601 0 0 0 4.625 2.132 5.922 5.922 0 0 0 4.625-2.04 7.537 7.537 0 0 0 1.813-5.178m3.418 9.637h-3.418v-3.619h-.083c-1.588 2.77-4.036 4.154-7.345 4.154a7.935 7.935 0 0 1-6.447-2.917c-1.6-1.935-2.4-4.52-2.4-7.754 0-3.526.886-6.358 2.66-8.497 1.772-2.138 4.152-3.207 7.14-3.207 2.92 0 5.055 1.152 6.406 3.457h.07V.417h3.422v31.56h-.005m20.419-9.637v-3.143a5.942 5.942 0 0 0-1.771-4.348 5.772 5.772 0 0 0-4.237-1.781 5.924 5.924 0 0 0-4.976 2.307c-1.19 1.539-1.785 3.683-1.785 6.434 0 2.332.57 4.214 1.711 5.645a5.556 5.556 0 0 0 4.57 2.141 5.982 5.982 0 0 0 4.67-2.03 7.527 7.527 0 0 0 1.818-5.216m3.423 7.925c0 7.812-3.756 11.72-11.267 11.723-2.395.05-4.77-.456-6.937-1.477v-3.416a14.133 14.133 0 0 0 6.863 1.999c5.273 0 7.908-2.783 7.904-8.35V28.4h-.083c-1.628 2.735-4.076 4.103-7.344 4.103a8.225 8.225 0 0 1-7.743-4.975 13.04 13.04 0 0 1-1.105-5.539c0-3.637.887-6.525 2.66-8.663 1.772-2.139 4.147-3.208 7.122-3.208 2.88 0 5.015 1.152 6.406 3.457h.083v-2.917h3.422v19.616h.019" fill="#FFF" mask="url(#f)"/></g><path d="M255.342 20.28c-.028-1.973-.505-3.503-1.43-4.592-.924-1.09-2.229-1.634-3.912-1.634a5.517 5.517 0 0 0-4.066 1.707 7.959 7.959 0 0 0-2.127 4.519h11.535zm3.505 2.894h-15.082c.056 2.402.693 4.238 1.91 5.506 1.218 1.267 2.905 1.903 5.06 1.906a10.48 10.48 0 0 0 6.614-2.33v3.184c-1.85 1.375-4.326 2.063-7.428 2.063-3.102 0-5.48-.982-7.136-2.945-1.712-1.963-2.567-4.68-2.567-8.15-.025-2 .415-3.978 1.286-5.779a9.79 9.79 0 0 1 3.538-4.048 9.116 9.116 0 0 1 5.009-1.435c2.775 0 4.933.898 6.475 2.695 1.541 1.797 2.312 4.313 2.312 7.547v1.79l.01-.004z" fill="#FFF"/></g></svg>