<svg class="press" xmlns="http://www.w3.org/2000/svg" xmlns:xlink="http://www.w3.org/1999/xlink" viewBox="0 0 1332.7 858.1"><title id="title">10k Apart Making Machine</title><g class="circle-bloop" visibility="hidden" fill="red"><circle cx="735" cy="165" r="10"/><circle cx="735" cy="165" r="10"/><circle cx="735" cy="165" r="10"/></g><g id="paper1"><path fill="none" stroke="#232323" stroke-linecap="round" stroke-linejoin="round" stroke-width="2" d="M449.4 240l98-62.1 40.1 19.2-135.2 87.2-2.9-44.3z"/><path d="M488 224c-.7-5.3.5-3.3 4.3-5.3s8-4.8 11.9-7.2l-.7-.9c1.5-1.3 3.8-.4 5.4-.6l-12.7 7.6c-3.2 1.9-5.4 4.4-8.2 6.4zm23.2-5.3a51 51 0 0 1-15 9.9c-4.4 2-11.5 2.6-6-3.6 3.7-4.1 9.4-7.3 14.3-9.5s12.9-3.2 6.6 3.2zm-9.7 5c1.3-.8 11.5-6.4 10.1-8.7s-10.7 4.1-11.9 4.8-11.4 6.6-10.2 8.6 10.5-3.8 12-4.7zM492 254c-.7-5.3-1.4-6.2 2.5-10.1s12.1-10.3 14.6-15.9l-10.5 6.4a24.7 24.7 0 0 0-3.8 2.4c-1.7 1.5-2 4.4-4.4 5.1-.3-2.4-2.2-6.9.9-7.8 1.3 2.8 20.6-10.4 23-11.8s6.5-3.1 8.8-5.4-.1-3 2.6-3.2 4.3 3 5.3 3.7c-1.7 1.8-3.4.5-5.5 1s-3.5 2-4.8 2.7l-10.4 6.3c2.8.1 23.6-4.2 20.5-7.4 2.5-2.9 6.8 2 9.1 3.6-2.2 2.3-4.3.4-7.1.6-5.5.3-17 2.5-20.9 6.2s-8.8 9.5-12.9 14.2c-2.6 2.6-3.8 8.4-7 9.4z"/></g><path d="M344.2 327.8l-10.4-5.4.8-1.1s7.6-3.3-2.3-9.6l-237.1-152-12.8 23-12.6-7.3-4.8 8.3-.7 1.2-.5 1-1.9 3.4-5-2.6a3.332 3.332 0 1 0-3.1 5.9l4.7 2.5-4.7 8.1-4.4-2.3a3.332 3.332 0 1 0-3.1 5.9l4.1 2.2-8 13.8 13.4 7.7-13.7 24.9 255.7 117s5.7 4.8 9-1.2l1.4-2.5 10.4 5.4a9 9 0 0 0 12.1-3.8 9 9 0 0 0-3.8-12.1l-10.2-5.3 8-15.1 11.2 5.8a9 9 0 0 0 12.1-3.8 9 9 0 0 0-3.8-12zm-182.3-66.5c-6.9 7.4-10.6 12.5-28 7.2S89.7 247 89.7 247s-17.8-10.5-3.4-32.6c0 0 9.9-21.2 39.1-2s32.6 24.7 32.6 24.7 10.9 16.8 3.9 24.2z" fill="#232323"/><path d="M598.6 633.2l7.8-257.1c-63.4 44.5-82.3-58.2-82.3-58.2-12.2 90.3-83.6 78.8-83.6 78.8-28.6 63.2-77.7 49.6-77.7 49.6l-.5 211c-77.8 29.5-90.6 133.5-90.6 133.5H313c25.8-96.9 100.2-104 116.4-104.4h2l54.6 12.2 46.6-12.3h3.9c91-3.6 123.5 102.1 123.5 102.1l41.6-.3c-6.2-103.1-103-154.9-103-154.9zm-112.5 30.2c-47.4.3-86.1-43.4-86.4-97.7s37.7-98.5 85.1-98.8 86.1 43.4 86.4 97.7-37.7 98.5-85.1 98.8z" fill="#1798ba" opacity=".7"/><path d="M312.6 784.7s34.7-100.9 119.1-98.7c0 0 39.7 2.6 53.3 12.5 0 0 70.9-36.8 127.7 16.9 0 0 22.3 22 42.7 59.3 0 0-72.7-118.8-168.7-61.8 0 .1-105.2-51.5-174.1 71.8z" fill="#232323"/><g id="plate2"><path fill="#232323" d="M482.6 260.4l301.1-.9v21l-316.5-10 15.4-10.1z"/><path fill="none" stroke="#232323" stroke-linecap="round" stroke-linejoin="round" stroke-width="2" d="M549.6 219.4l197.5.1 38.2 37.6-302.7 3.3 67-41z"/></g><path d="M433.4 287.8h-79.8l-13.1-17h29.2c4.7 0 8.6-3.6 8.6-7.7v-2.3c0-4.1-3.8-7.1-8.6-7.1h-26.9a17.8 17.8 0 0 0 .2-2h-3c1.7 0 1.5-2.1 1.5-3.7v-41.4c0-1.6.1-1.8-1.5-1.8h-49.8a64.7 64.7 0 0 1-22-48.3v-2.1a9.6 9.6 0 1 0-9.5-9.6v.7c-4 1.2-7.8 2.6-8.6 3.3s-7.7.5-15.7.5v-7.6a1.5 1.5 0 1 0-3 0v7.5c-13-.1-27-.5-33-.6v56.1h-3v-14h-17v-57.2c0-4.7-3-7.7-7.7-7.7h-14.4c-4.7 0-9.7 2.9-9.7 7.7v79.7l-17 13.1v-29.2c0-4.7-2.8-8.6-6.9-8.6H120c-4.1 0-7.5 3.8-7.5 8.6V239c0 .2.4.4.4.6l-41 31.7a13.2 13.2 0 0 0-5.9 11.1 13.5 13.5 0 0 0 13.6 13.4 13.8 13.8 0 0 0 5-.9l70.3-21.3 25.5 65.3a10 10 0 0 0 8.5 4.8c5 0 9.1-3.1 9.9-8l-3.1-67.8h-.1v-16H234v66.4l-6 2.1a9.8 9.8 0 0 0-4.8 8.3c0 5 2.9 9.1 7.8 9.8l67.6-3.2v1.5h16v36.9h-69.9c-1.6 21.5 12.2 21.5 17.5 20.9s7.9-3.1 20.5 1.5 12.8 19.3 12.8 19.3-.4 48.6-.3 51.4c-.5 14.8 19.3 15.9 19.3 15.9v-3c0 1.7 2.5 3.1 4.2 3.1h41.5c1.6 0 1.3-1.5 1.3-3.1v-49.8a65.2 65.2 0 0 1 48.5-22h2.2a9.6 9.6 0 0 0 19.1 0 9.5 9.5 0 0 0-9.5-9.5h-.7c-1.2-4-2.6-7-3.3-7.8s-.5-6.9-.5-14.9h7.7a1.5 1.5 0 1 0 0-3h-7.5c.1-13 .5-27 .6-33h-56.6v-3h14v-17h57.8c4.7 0 7.2-4.6 7.2-9.3v-14.5c0-4.7-2.4-8.1-7.1-8.1z" fill="#1798ba" opacity=".28"/><path d="M369.2 633.4c-27-4.5-52.4-124.2-56-145.4-6.2-37 2.3-73.9-.7-108.8-14-10.6-21.9 95.1-19.7 107.1 0 0 44.5 141.8 48.1 142.3 10.2 10.2 16.2 8.8 31.3 11.4 0-5.2 4.1-5.5-3-6.7zm-26.5-4.4c1.9-.2 1.1.2 0 0s.2 0 0 0z" fill="#d32a2e"/><path id="gear" d="M390.3 383.8h3.2l3.5 9.8 4.9-.4 1.4-10.2 3.4-.6a28.7 28.7 0 0 1 3-.7l5.3 8.6 4.7-1.5-.8-10a21.9 21.9 0 0 1 2.8-1.2l1.3-.6 1.9-.9 6.9 7.3 4.4-2.5-2.9-9.8a28.8 28.8 0 0 0 2.9-2.1l2.3-1.8 8.5 6 3.7-3.4-5.1-9.1a60 60 0 0 0 4.4-4.8l9.6 4 2.9-4-6.6-7.8a56.9 56.9 0 0 0 3.4-5.6l9.9 1.8 2-4.5-8-6.2c.7-2 1.5-4.2 2-6.3l10.2-.2 1-4.9-9.3-4.4.3-2.9c.1-1.2.2-2.4.2-3.6l10.1-2.4v-5l-10.1-2.4c0-1.2-.1-2.5-.2-3.6l-.3-3 9.3-4.3-1-5-10.2-.2c-.6-2.1-1.4-4.3-2-6.3l8-6.1-1.9-4.6-10 1.9a48.2 48.2 0 0 0-3.4-5.7l6.6-7.8-2.9-4-9.4 3.9-4.4-4.7 4.9-9.1-3.7-3.4-8.4 6-2.4-1.8-2.9-2.1 3-9.8-4.4-2.5-7 7.3-3.3-1.6-2.8-1.1.9-10-4.8-1.6-5.3 8.7c-2-.5-4.2-.9-6.4-1.2l-1.4-10.2-4.9-.6-3.4 9.8H387l-3.4-9.8-5.1.6-1.2 10.2-6.5 1.2-5.2-8.7-4.8 1.6.9 10-2.8 1.1-3.4 1.6-6.9-7.4-4.4 2.6 2.9 9.8-1.7 1.2-1.2.9-2.2 1.7-8.4-5.9-3.7 3.4 4.9 9.1a20.6 20.6 0 0 0-2.1 2.3l-2.2 2.5-9.6-3.9-2.9 3.9 6.6 7.8c-1.1 1.9-2.4 3.8-3.4 5.7l-9.9-1.9-2 4.6 8 6.1-2 6.4-10.1.2-1.1 5 9.3 4.3-.3 3c-.1 1.1-.2 2.4-.2 3.5l-10.1 2.4v5.1l10.1 2.4c0 1.1.1 2.4.2 3.6l.3 2.9-9.4 4.1 1.1 4.8 10.1.2q.8 3.2 2 6.4l-8 6.1 2 4.6 9.9-1.9q1.5 2.9 3.4 5.7l-6.6 7.7 2.9 4 9.6-3.9c1.4 1.6 2.8 3.3 4.4 4.8l-5.1 9.1 3.7 3.3 8.5-5.9 2.2 1.8 2.9 2.1-2.9 9.8 4.3 2.5 7-7.4 3.4 1.6 2.7 1.2-.8 10 4.7 1.5 5.3-8.6 6.4 1.2 1.4 10.2 4.9.4 3.4-9.8h3.4zm49.4-39.4a11.8 11.8 0 1 1-11.8-11.8 11.8 11.8 0 0 1 11.8 11.8zm9.6-38.2a20.5 20.5 0 1 1-20.5-20.5 20.5 20.5 0 0 1 20.5 20.5zm-9.6-38.2a11.8 11.8 0 1 1-11.8-11.8 11.8 11.8 0 0 1 11.8 11.7zm-101.2 0a11.8 11.8 0 1 1 11.8 11.8 11.8 11.8 0 0 1-11.8-11.9zm31.6-.7a20.5 20.5 0 1 1 20.5 20.5 20.5 20.5 0 0 1-20.5-20.6zm-38.9 38.1a20.5 20.5 0 1 1 20.5 20.5 20.5 20.5 0 0 1-20.5-20.6zm7.3 39.1a11.8 11.8 0 1 1 11.8 11.8 11.8 11.8 0 0 1-11.8-11.9zm30.8-.1a20.5 20.5 0 1 1 20.5 20.5 20.5 20.5 0 0 1-20.5-20.6z" fill="none" stroke="#f46240" stroke-miterlimit="10" stroke-width="2"/><path id="wheel3" d="M629.5 571.8l5.2-5.4 12 8c2.5-2.9 4.9-5.8 7.2-8.8l-10.2-10.2a147.2 147.2 0 0 0 8.4-12.4l13.4 5.5c1.9-3.3 3.6-6.6 5.3-10l-12-8a146 146 0 0 0 5.8-13.8l14.2 2.8c1.2-3.6 2.3-7.2 3.3-10.8l-13.4-5.5a149.5 149.5 0 0 0 2.9-14.7H686c.5-3.8.9-7.5 1.1-11.3l-14.2-2.8c.2-5 .3-9.9 0-15l14.2-2.8c-.2-3.8-.6-7.5-1.1-11.3h-14.6a143.4 143.4 0 0 0-3-14.7l13.4-5.5c-1-3.6-2.1-7.3-3.3-10.9l-14.2 2.9a149.2 149.2 0 0 0-5.8-13.9l12-8c-1.6-3.4-3.4-6.7-5.3-10L652 391q-3.8-6.4-8.3-12.4l10.2-10.2c-2.3-3-4.7-5.9-7.2-8.8l-12 8-5.2-5.4-5.4-5.2 8-12c-2.9-2.5-5.8-4.9-8.7-7.2L613.2 348q-6.1-4.5-12.4-8.4l5.5-13.4c-3.3-1.9-6.6-3.6-10-5.3l-8 12a145.7 145.7 0 0 0-13.9-5.7l2.8-14.2c-3.6-1.2-7.2-2.3-10.8-3.2l-5.4 13.5a142.1 142.1 0 0 0-14.7-2.9v-14.5c-3.7-.5-7.5-.8-11.2-1.1l-2.8 14.1c-5-.2-10-.2-15 0l-2.8-14.1c-3.8.2-7.5.6-11.3 1.1v14.4c-4.9.7-9.8 1.7-14.7 2.9l-5.5-13.3c-3.6 1-7.2 2-10.8 3.3l2.8 14.2c-4.7 1.7-9.3 3.6-13.8 5.8l-8-12c-3.4 1.7-6.7 3.4-10 5.3l5.5 13.3a147.4 147.4 0 0 0-12.4 8.4L426 337.9c-3 2.3-5.9 4.7-8.8 7.2l8 12-5.4 5.1c-1.8 1.8-3.5 3.6-5.1 5.5l-12-8c-2.5 2.8-4.9 5.8-7.2 8.7l10.2 10.2c-3 4-5.8 8.2-8.4 12.4l-13.3-5.5c-1.9 3.3-3.7 6.6-5.3 10l12 8q-3.2 6.8-5.8 13.8l-14.2-2.8c-1.2 3.6-2.3 7.2-3.3 10.8l13.4 5.5c-1.2 4.9-2.2 9.8-2.9 14.7h-14.3c-.5 3.7-.9 7.5-1.1 11.3l14.2 2.8a148.6 148.6 0 0 0 0 15l-14.2 2.8c.2 3.8.6 7.5 1.1 11.3H378a139.3 139.3 0 0 0 2.9 14.7l-13.4 5.5c1 3.6 2.1 7.2 3.3 10.8l14.2-2.8a138.8 138.8 0 0 0 5.7 13.8l-12 8c1.7 3.4 3.4 6.7 5.3 9.9l13.3-5.5c2.6 4.2 5.4 8.4 8.4 12.4l-10.2 10.2c2.3 3 4.7 5.9 7.2 8.7l12-8 5.2 5.4 5.4 5.2-8.1 12c2.9 2.5 5.8 4.9 8.8 7.2l10.2-10.2c4 3 8.2 5.8 12.4 8.4l-5.5 13.3c3.3 1.9 6.6 3.7 9.9 5.3l8-12a140.7 140.7 0 0 0 13.9 5.7l-2.8 14.2q5.4 1.8 10.8 3.3l5.5-13.4a144.4 144.4 0 0 0 14.7 2.9v14.4c3.7.5 7.5.8 11.3 1.1l2.8-14.2a146.5 146.5 0 0 0 15 0l2.8 14.2c3.8-.2 7.5-.6 11.3-1.1v-14.4c4.9-.7 9.8-1.7 14.7-2.9l5.5 13.4q5.5-1.4 10.8-3.3l-2.8-14.2a145.9 145.9 0 0 0 13.9-5.8l8 12.1c3.3-1.7 6.7-3.4 10-5.3l-5.6-13.3q6.4-3.8 12.4-8.4l10.2 10.2q4.5-3.4 8.7-7.2l-8-12zM621.4 376a132.7 132.7 0 0 1 32.7 120.8l-100.9-27a28.6 28.6 0 0 0-5.6-20zm-5.7-5.7l-73.8 73.8a28.5 28.5 0 0 0-20.4-5.5l-27-100.9a132.7 132.7 0 0 1 121.2 32.6zm-184.9 2.8a132.2 132.2 0 0 1 55.8-33.3l27 100.8a28.3 28.3 0 0 0-9.2 6.1 28.7 28.7 0 0 0-6.2 9.2L397.4 429a132.1 132.1 0 0 1 33.4-55.9zm-2.2 185.5a132.7 132.7 0 0 1-33.2-121.8l100.9 27a28.5 28.5 0 0 0 6.1 21.1zm86-101.7a14.3 14.3 0 1 1 0 20.2 14.3 14.3 0 0 1 0-20.2zm-80.3 107.4l73.9-73.9a28.6 28.6 0 0 0 21 4.9l27 100.8a132.7 132.7 0 0 1-121.9-31.8zM564 593.9l-27-101a29.4 29.4 0 0 0 8.1-5.7 28.6 28.6 0 0 0 6.3-9.6l100.8 27a132.8 132.8 0 0 1-88.2 89.3z" fill="none" stroke="#e94a1b" stroke-miterlimit="10" stroke-width="3"/><path d="M108.4 164.6l27-15.2 2.6-1.5-2.9-2.8a.8.8 0 0 0-.7.2l-5.4 2.2-17.8 7.2-9.6 3.9z" fill="#e94a1b"/><path fill="#fff" stroke="#232323" stroke-linecap="round" stroke-linejoin="round" stroke-width="2" d="M438 241.6l120.2-76.2 49.2 23.6-165.9 106.9-3.5-54.3z"/><path d="M331.1 570.9a7.9 7.9 0 0 0 .3 12.3 7.7 7.7 0 0 0 6.7 1.4 66.7 66.7 0 0 0 8.3-3.5l8.7-3.9c.4-.2 1.8-.5 1.8-.9v-16.4l-13.2 5.4-6.5 2.6c-2 .9-4.3 1.5-6 3zm7.3 2.2a4.1 4.1 0 1 1-5.8 2.8 4.2 4.2 0 0 1 5.8-2.8z" fill="#ececec" stroke="#0e7ea5" stroke-linecap="round" stroke-linejoin="round" stroke-width="2"/><path d="M377.5 606.6a9.8 9.8 0 0 0-5.2-18.7c-2.6.4-5 1.7-7.3 2.8l-6.3 2.7-23.8 10.2-11.9 5c3.9 4.9 8 9.7 12.4 14.3.4.4 1.1 1.2 1.8.9l1.8-.8 3.3-1.4 13.1-5.6zm-5.5-2.3a6.4 6.4 0 0 1-4.6-5.6 6.3 6.3 0 1 1 4.6 5.6z" fill="#ececec" stroke="#232323" stroke-linecap="round" stroke-linejoin="round" stroke-width="2"/><path d="M227.6 269.9l283.8 34.3-1.3 14.9-282.5-32.7s4-14 0-16.5zm239.7-24.1L256 231.1l2.6-16 213.4-9.3-4.7 40z" fill="none" stroke="#232323" stroke-linecap="round" stroke-linejoin="round" stroke-width="2"/><path id="wheel2" d="M554 182.1l-3.5 3.7-8.2-5.5c-1.7 2-3.4 3.9-4.9 6l7 7a100.6 100.6 0 0 0-5.7 8.5l-9.1-3.8c-1.3 2.2-2.5 4.5-3.6 6.8l8.2 5.5a99.8 99.8 0 0 0-3.9 9.4l-9.7-1.9c-.8 2.4-1.6 4.9-2.2 7.4l9.1 3.8a102.1 102.1 0 0 0-2 10h-9.9c-.4 2.6-.6 5.1-.8 7.7l9.7 1.9c-.2 3.4-.2 6.8 0 10.2l-9.7 1.9c.2 2.6.4 5.2.7 7.7h9.9a98 98 0 0 0 2 10l-9.1 3.8c.6 2.5 1.4 5 2.2 7.4l9.7-2a101.9 101.9 0 0 0 3.9 9.5l-8.2 5.5c1.1 2.3 2.3 4.6 3.6 6.8l9.1-3.8q2.6 4.3 5.7 8.5l-7 7c1.6 2 3.2 4 4.9 6l8.2-5.5 3.5 3.7 3.7 3.5-5.5 8.2c2 1.7 3.9 3.4 6 4.9l7-7q4.1 3.1 8.5 5.7l-3.8 9.1c2.2 1.3 4.5 2.5 6.8 3.6l5.5-8.2a99.5 99.5 0 0 0 9.5 3.9l-1.9 9.7 7.4 2.2 3.8-9.1a97 97 0 0 0 10 2v9.9l7.7.7 1.9-9.7c3.4.2 6.8.2 10.2 0l1.9 9.7c2.6-.2 5.1-.4 7.7-.8v-9.9c3.3-.5 6.7-1.2 10-2l3.8 9.1 7.4-2.2-1.9-9.7c3.2-1.1 6.3-2.5 9.4-3.9l5.5 8.2c2.3-1.1 4.6-2.3 6.8-3.6l-3.8-9.1a100.7 100.7 0 0 0 8.5-5.7l7 7c2-1.6 4-3.2 6-4.9l-5.5-8.2 3.7-3.5 3.5-3.7 8.3 5.5c1.7-1.9 3.4-3.9 4.9-6l-7-7c2-2.8 4-5.6 5.7-8.5l9.1 3.8c1.3-2.2 2.5-4.5 3.6-6.8l-8.2-5.5q2.2-4.7 3.9-9.5l9.7 1.9c.8-2.5 1.6-4.9 2.2-7.4l-9.1-3.8c.8-3.3 1.5-6.7 2-10h9.9c.4-2.6.6-5.1.8-7.7l-9.7-1.9a101.5 101.5 0 0 0 0-10.2l9.7-1.9c-.2-2.6-.4-5.1-.7-7.7h-9.9a95.2 95.2 0 0 0-2-10l9.1-3.8c-.7-2.5-1.4-4.9-2.2-7.4l-9.7 1.9a94.8 94.8 0 0 0-3.9-9.5l8.2-5.5c-1.1-2.3-2.3-4.6-3.6-6.8l-9.1 3.8c-1.8-2.9-3.7-5.7-5.7-8.5l7-7c-1.6-2-3.2-4-4.9-6l-8.2 5.5-3.5-3.7-3.7-3.5 5.5-8.2c-2-1.7-3.9-3.4-6-4.9l-7 7c-2.8-2.1-5.6-4-8.5-5.7l3.8-9.1c-2.2-1.3-4.5-2.5-6.8-3.6l-5.5 8.2a96.1 96.1 0 0 0-9.5-3.9l1.9-9.7-7.4-2.2-3.8 9.1a98.6 98.6 0 0 0-10.1-2v-9.9l-7.7-.7-1.9 9.7a100.1 100.1 0 0 0-10.2 0l-1.9-9.7-7.7.8v9.9c-3.4.5-6.7 1.2-10 2l-3.8-9.1-7.4 2.2 1.9 9.7a99.7 99.7 0 0 0-9.5 3.9l-5.5-8.2-6.8 3.6 3.8 9.1q-4.4 2.6-8.5 5.7l-7-7q-3 2.3-6 4.9l5.5 8.2zm5.6 133.8a90.6 90.6 0 0 1-22.3-82.5l68.9 18.4a19.6 19.6 0 0 0 3.8 13.7zm3.9 3.9l50.4-50.4a19.5 19.5 0 0 0 14 3.8l18.4 68.8a90.7 90.7 0 0 1-82.8-22.3zm126.3-1.9a90.3 90.3 0 0 1-38.1 22.8l-18.5-68.9a19.4 19.4 0 0 0 6.3-4.2 19.6 19.6 0 0 0 4.2-6.3l68.9 18.4a90.2 90.2 0 0 1-22.8 38.1zm1.5-126.7a90.6 90.6 0 0 1 22.7 83.1l-68.9-18.5a19.5 19.5 0 0 0-4.1-14.4zm-58.8 69.5a9.8 9.8 0 1 1 0-13.8 9.8 9.8 0 0 1 0 13.7zm54.8-73.4l-50.5 50.5a19.6 19.6 0 0 0-14.3-3.3l-18.4-68.8a90.6 90.6 0 0 1 83.3 21.5zM598.8 167l18.5 69a20.1 20.1 0 0 0-5.5 3.9 19.5 19.5 0 0 0-4.3 6.5L538.6 228a90.7 90.7 0 0 1 60.2-61z" fill="none" stroke="#e94a1b" stroke-miterlimit="10" stroke-width="2"/><g id="hoverArea"><g id="wheel1" fill="#074864" stroke-linecap="round" stroke-linejoin="round" stroke-width="2"><path d="M785 370c-17.5-55.6-52.6-104.9-98.9-140.2-24.3-17.6-50.1-32.3-78.5-42.1a287.2 287.2 0 0 0-89.7-15.5A283.2 283.2 0 1 0 785 370zm-.9 139.6a276 276 0 0 1-84.9 150.3c-22.8 20.8-48.8 36.6-76.8 49.4-23.8 10-48.5 16-74.1 19.8-29.3 2.8-58.6 2.6-87.5-3.4a291.6 291.6 0 0 1-72.1-25.5c-53.9-27.1-98.2-74.5-123.5-129A277.7 277.7 0 0 1 249.4 382c15.4-56.4 48.9-105.6 94.1-142.3 41.5-33.7 93.2-53.3 146.2-58.5s103.9 5.4 149.9 28.9c51.8 26.5 96.4 70.7 121.4 123.4 11.9 25.1 20.7 51.4 24.9 78.9a289.1 289.1 0 0 1 2.6 65.6 272.4 272.4 0 0 1-4.4 31.6c-.6 2.8 4.6-23.2 0-.1z"/><path d="M782 436.2c-2.5-24.7-7-48.8-15.7-72.1a266.6 266.6 0 0 0-44.3-77.5 269.7 269.7 0 0 0-147.3-91.1c-25.9-6-53.3-8.4-79.8-6.1a277.3 277.3 0 0 0-46.4 7.6 302.8 302.8 0 0 0-42.3 14.5c-22.3 9.5-42.8 23.1-61.6 38.3a254.2 254.2 0 0 0-54.1 60.8 276 276 0 0 0-34.7 78.8 265.5 265.5 0 0 0-6.7 97.3c7.1 60.9 35.2 118.7 79.5 161.3 41.1 39.4 94.5 65.5 151 72.6A272.2 272.2 0 0 0 653.2 684c50.4-30.4 90.4-77.6 111.5-132.6a270.9 270.9 0 0 0 16.2-65.1c1.9-16.7 1.8-33.3 1.1-50.1zm-57.6-122.5a256.2 256.2 0 0 1 37.2 84.5q2.7 11.6 4.4 23.5a35.5 35.5 0 0 1-2 18.2c-5.1 12.7-17 19.6-29.7 23a41.2 41.2 0 0 1-22.6.3 88.5 88.5 0 0 1-20-9.3c-12.9-7.6-24.9-16.6-38.2-23.5s-26.9-11.1-41.7-12.1-28.8 1.4-42.5 5.2c-3.4 1-6.7 2-10 3.2s-6.9 3-10.6 3c-6.2 0-12.4-5.1-15.3-10.4s-2-11.5-.7-17.4a124.3 124.3 0 0 1 6.8-21.9c5.1-12.3 12.3-23.6 22.7-32.1s22.5-14.6 34.4-20.6 23.6-12.1 33.6-20.8 17.7-21.6 20.8-35.7c1.4-6.3 2.4-12.6 9.2-15.2s12.6 1.9 17.9 6.2a247.9 247.9 0 0 1 27.9 27.9 255.7 255.7 0 0 1 18.4 24zm-169 169.1a115.8 115.8 0 0 1 32.4 40 197.2 197.2 0 0 0-24.3-29.6c-4.8-4.7-10.8-8.7-15-14.1s-4.8-12.7-3.1-19.4a25.7 25.7 0 0 0 1 12c1.7 4.8 5.2 8.1 9.1 11.1zm58.5 191.6a13.2 13.2 0 0 1-7.3 17.2c-7.1 2.7-14.3 5.2-21.6 7.3a264.7 264.7 0 0 1-45.7 8.8 256.2 256.2 0 0 1-93.4-8c-7.3-2-14.5-4.4-21.5-7s-12.7-4.9-17.8-9.8c-10.5-10.1-11.7-24.2-8.9-37.7 1.4-6.7 4-13.5 8.3-18.9s10.5-9.7 16.5-13.5c11.7-7.3 24.5-12.7 36.5-19.5s21.4-13.5 30-22.9 16.7-23.8 21.6-37.4a155.7 155.7 0 0 0 6.2-22.5c1.3-6.6 1.4-13.7 8-17.3s12.9-4.2 19.1-1.1 10.8 8.6 15.3 13.2c10.4 10.9 19.3 23.9 23.2 38.6s3 30.4 2.2 45.7-1.8 31.7 2.5 47a56.9 56.9 0 0 0 9.4 18.8 73 73 0 0 0 7 8.2c2.6 2.6 5.9 4.8 8.3 7.6a12.4 12.4 0 0 1 2.1 3.2zm-208-66.1c10.3-8.8 22.6-14.9 34.5-21.2s24.8-13.7 35.5-23.3c16.7-15.3 24-37.8 29.3-59.2-2.3 13-5.2 26-11.3 37.9a83 83 0 0 1-5.3 9.6 98.9 98.9 0 0 1-15.1 17.2c-11.2 9.9-25.2 16.3-38.5 22.9s-24.3 12.5-34.8 21.6l-.3.3c2-2 3.9-4 6-5.8zm44.5-130.9c-13.1 3.4-27.8 5.4-41.2 2.8s-28.1-9.4-40.8-17.4-25.6-17.6-40-23.6c-6.6-2.6-13.3-4.6-20.5-4.6a76.3 76.3 0 0 0-20.3 3.1l-3.1.9c6-2.2 11.9-4.2 18.3-4.9a53.7 53.7 0 0 1 21.6 2.2c15.1 4.3 28.4 14.1 41.5 22.4s24.7 15.7 38.6 18.7a102.2 102.2 0 0 0 42.5.2c6.9-1.5 13.7-3.3 20.6-5.3-5.7 2-11.3 4.1-17.2 5.5zm30.7-51c-2.7-1-5.1-3.3-7.3-5.2l-6.6-5.7a103.8 103.8 0 0 1-11.4-12.7c-4.2-5.5-8.6-11.2-11.5-17.4a86.6 86.6 0 0 1-8.4-32.8 227.9 227.9 0 0 1 1.1-31.1c-.2 22-1.1 46.3 11.1 65.8 6.3 10.1 13.1 19.8 21.9 28 4.6 4.3 9.6 10.4 16 11.8a28.7 28.7 0 0 0 16.9-.1c-7.2 2.8-14.8 3-21.8-.6-.8-.3 1.5.7 0 0zm13.1 11.5a27 27 0 1 1 16.5 44.4c-14.7-2.1-25-16.5-22.7-31.1a26.9 26.9 0 0 1 6.2-13.3zm27.7-47.5c3.6-15 10.3-31 20.9-42.6 13.1-14.9 30.1-23.9 47.9-32-18.5 10.5-37.5 21.2-50.1 38.9s-17.7 35.4-22 54.9a161.1 161.1 0 0 1 3.4-19.2zm114.8-118c2.5-9.8 3.5-19.9 1.3-29.8-2.8-12.5-12.2-22.2-23.2-28.1a41 41 0 0 1 27.1 38c.1 14.9-4.9 29.8-15.4 40.5a55.2 55.2 0 0 0 10.3-20.5c.1-.6-.1.1 0-.1zm-220-48c2-2.8 4.7-4.3 7.8-5.4s7.9-2.9 12-4.2c7.4-2.4 15-4.4 22.6-6.1a250.7 250.7 0 0 1 43.9-5.9 253.7 253.7 0 0 1 87.5 11c14 4.3 30 8.5 37.9 22s5.4 28.5-.2 41-18.5 20.6-30.7 27.1-22.1 11.2-32.7 17.5a102.7 102.7 0 0 0-42.2 47.4 150.5 150.5 0 0 0-7.7 21.7c-.9 3.3-1.7 6.7-2.3 10.1s-.9 7.5-2.1 10.9c-2.2 5.8-8.5 8.9-14.4 9.8-7.8 1.1-13.4-3.1-18.9-8.1-11-10.1-21.2-22.2-27.1-36s-6.5-30-5.9-45.3 1.8-28.3.6-42.5-6.5-27.7-16.3-38.5a84.7 84.7 0 0 0-6-6c-2-1.8-4.3-3.3-5.8-5.6a13.1 13.1 0 0 1 .1-14.7zm-7.2 19.1a21.1 21.1 0 0 1-2.4-14.9 23 23 0 0 0 4.5 14.9c4.6 4.8 9.9 8.6 14.1 13.8a46.4 46.4 0 0 1 9.1 16.6 70.9 70.9 0 0 1 2.4 15.3c-1.9-8.2-4-16.1-8.4-23.4a71.1 71.1 0 0 0-10-12.4c-3.1-3.3-7-5.9-9.3-9.9zM264.3 417.3a256.9 256.9 0 0 1 75.3-145c5.5-5.2 11.2-10.3 17-15s11.6-8.4 18.9-9.6c14.3-2.4 27.1 5.1 36.7 15.1a40.3 40.3 0 0 1 10.1 16.7c1.9 7.1 2.3 14.5 2.3 21.7 0 14.8-1.7 29.6-1.3 44.4s3.5 30.4 10.4 44.3 15.5 24.2 25.7 34.1q3.8 3.7 7.8 7.2c2.7 2.2 5.9 4.2 7.8 7.3 3.2 5.1 2.4 12.3-.2 17.4s-8.5 8.5-14.5 10.5a127.6 127.6 0 0 1-21.3 5.2c-14.4 2.2-29 1.6-42.6-3.9s-25.6-13.8-37.9-21.7-25.5-16-40-18.6a62.8 62.8 0 0 0-21.9.1 84.8 84.8 0 0 0-10.5 2.6c-3.1 1-6.3 2.6-9.6 2.3-7.5-.7-13.3-7.2-12.1-15s-.8 4.5-.1-.1zm-1.1 71.2a34.4 34.4 0 0 1 15.3-33.2c11.5-7.4 26.8-11.1 40.1-7s27.1 14.1 39.8 22.2 26.7 15.9 41.8 19.7 29.1 3.3 43.5 1a149.2 149.2 0 0 0 22.2-5.5c3.5-1.1 6.9-2.6 10.4-3.7s7.1-.5 10.5 1c5.5 2.5 9.9 8.7 10.8 14.6s-1.5 14.1-3.3 20.4c-3.9 13.6-10 27.3-19.6 37.9s-20.1 16.4-31.5 22.5c-13.4 7-27 13.4-39.4 22.3a63.7 63.7 0 0 0-24.3 34.3c-1.8 6.1-1.6 13.8-6.9 18.3s-13.2 3-18.6-1.5c-45-37.8-76.8-90-88.2-147.8q-1.5-7.7-2.6-15.5c-1.6-11.7 5 37.4 0 0zm102.2 175.4c-8.2 1-14.2-3.9-20-8.7a271.7 271.7 0 0 1-20.1-18.7C315 626 306.6 614 298.7 601.7c5.1 6.2 9.8 12.6 15.2 18.6s10.5 11.8 16.1 17.4 14.2 13.4 21.4 20.1 13.1 6.2 20.5 4.6a30 30 0 0 1-6.4 1.6zm252 29.3c-4.4 5.2-10.8 6.8-17 9.1S586.2 707 579 709a242.3 242.3 0 0 1-46.3 7.9 256.6 256.6 0 0 1-95.3-10.8c-6.7-2.1-13.2-4.6-19.7-7.2a48.3 48.3 0 0 1-16.9-10.5c-8.9-8.7-12.6-20.6-12.1-32.7.1 13.3 5.1 25.7 15.7 34.1 5.8 4.6 12.5 6.9 19.4 9.5s15.2 4.9 22.8 7.1c30.7 8.6 63.7 10.6 95.2 7.2 16.1-1.7 32.4-4.3 47.8-9.1 7-2.2 14.5-4.1 21.2-7.1s10-8.6 11.3-14.8a21.6 21.6 0 0 1-4.8 10.6zm4.9-30.8l2.8 2.3c-12.2-7.5-23.6-17.6-26.9-32.1s-2.1-27.6-.4-41.4c.2 12.8-.7 26 2.3 38.5s11.4 24.1 22.3 32.7c1.7 1.5-.4-.2-.1 0zm120.1-96.1a253.7 253.7 0 0 1-48 68c-4.8 4.9-9.7 9.5-14.9 13.9s-10.3 9.3-16.4 12.3a34.4 34.4 0 0 1-20.5 3.1c-7.3-1.2-13.5-4.9-19.2-9.4s-10.7-9.8-14-16.2-4.3-13.5-4.7-20.5c-.9-15 1.1-30.1 1.2-45.1s-1.8-31.3-7.9-45.7a122.7 122.7 0 0 0-20.6-31.7 147.4 147.4 0 0 0-16.3-15.8c-5.2-4.4-10.1-8.7-8.6-16.3 1.2-6 3.1-11.3 8.6-14.7s13.4-5.2 20-6.7c13.6-3.1 28.2-4.4 41.9-1.1s28.2 12.1 41 20.4 25 16.5 39.3 21.2a59.8 59.8 0 0 0 23 2.8c7.8-.6 14.8-3.1 22.3-5.3a13.1 13.1 0 0 1 16.1 8.5c1 3.2.4 6.4-.1 9.6s-1.4 7.8-2.3 11.7A253.2 253.2 0 0 1 748 554c-1.7 4.2-3.6 8.3-5.6 12.3zm29.7-67.9c-1.9 13.2-4.1 26.3-8.6 38.9a193.9 193.9 0 0 1-7.3 18.4c-2.3 4.7-4.6 9.3-7 13.9 1.9-5.2 3.8-10.3 5.8-15.4 2.8-7 4.9-14.3 7.4-21.4s4.3-13.9 5.9-21 2.6-11.2 4.2-16.8l-.4 3.3c-.3 2.2.3-2 0 .1zm1.7-65.6a42.2 42.2 0 0 1-24.3 33.2c-14 6.6-28.6 9.6-43.6 4.4-25.7-8.8-45.2-30.1-71.1-38.7a94.6 94.6 0 0 0-42.3-4.4c-7.3.9-14.2 2.3-21.3 3.9-5 1.2-9.9 3-14.8 4.6l13.1-4.9a187.3 187.3 0 0 1 20.2-4.6c13.4-2.1 27.8-2.4 40.9 1.7s27.3 11.8 40 19.9c10.7 6.8 21.3 14.5 33.3 19.1a57.1 57.1 0 0 0 9.8 3.1 54.6 54.6 0 0 0 13.6.5c8.8-.6 18.6-4.2 26.2-8.7 14.4-8.4 21.2-24.3 20.1-40.5a46 46 0 0 1 .2 11.2c-.4 3.8.5-3.3 0 .2z"/></g><path id="crank" d="M751.8 140c-.4-1.1-1-3-2.1-3.6s-3.9.1-5.4.6a26.1 26.1 0 0 0-8.3 5.5 50.6 50.6 0 0 0-9.7 13 51.1 51.1 0 0 0-4.9 11.6 54.5 54.5 0 0 0-.9 6.8 34.7 34.7 0 0 1-2.6 9.2c-1.6 3.8-3.8 9.6-8.5 10.5-.8.1-1.9 0-2.6.5s-.5 4.4.5 5.7l.9 1a6 6 0 0 0-1.1 1.5l-178.5 346c-6.5 4.5-41.3 66.6-47.6 78.8-9.9 19.1-12.5 37.4-5.8 40.9s20.1-9.3 30-28.4c5.2-10 35.5-76.7 36.4-84.2L722 210.1a5.9 5.9 0 0 0 .6-2.2c1.8.1 3.7-.3 4.8-1.9a1.7 1.7 0 0 0 .2-1.7c-.6-1.6-1.6-2.8-1.6-4.6.1-4.1 2.7-8.2 4.9-11.5a32.9 32.9 0 0 1 5.7-6.7 38.5 38.5 0 0 0 5-5 56.1 56.1 0 0 0 6.9-12.1 47.4 47.4 0 0 0 4.1-15.1 23.6 23.6 0 0 0-.8-9.3z" fill="#d32a2e"/></g><path d="M515 421.4a34 34 0 1 0 34 34 34.1 34.1 0 0 0-34-34zm0 52.4a18.4 18.4 0 1 1 18.3-18.4 18.4 18.4 0 0 1-18.2 18.4z" fill="#ececec" stroke="#232323" stroke-linecap="round" stroke-linejoin="round" stroke-width="2"/><g id="plate1" fill="none" stroke-width="2"><path d="M118.4 74.1c5 3.9 10.7 6.9 16.4 9.9s11.6 5.8 17.4 8.6c11.8 5.5 24 10.5 36.2 15.2a738.8 738.8 0 0 0 71.7 23.6c10.7 2.9 21.5 5.5 32.5 7.4a139.8 139.8 0 0 0 16 2.2 33.9 33.9 0 0 0 7-.1c1.2-.2 3.7-.4 4-1.9-5.5 1.1-11.6.3-17.1-.4s-11.6-1.9-17.3-3.1c-12.3-2.7-24.5-6-36.6-9.6-24.5-7.3-48.6-15.8-72.3-25.5-11.6-4.8-23.2-9.8-34.4-15.5-8.3-4.1-16.7-8.5-24-14.3a27.6 27.6 0 0 1-4.4-4.3c-.8 1.3 0 2.7.8 3.8a21.8 21.8 0 0 0 4.1 4.1z" stroke="#232323" stroke-linecap="round" stroke-linejoin="round"/><path d="M116.6 63.4a22.9 22.9 0 0 0 4.7 4.4 91.1 91.1 0 0 0 9 5.9A292.2 292.2 0 0 0 158.6 88a705.2 705.2 0 0 0 69.2 26.7c11.6 3.8 23.3 7.4 35.1 10.6s22.6 5.9 34.2 7.9a97.3 97.3 0 0 0 17.3 1.8c.8 0 6.8-.1 6.5-1.5s-2.9-3.8-4.3-4.9c-6.6-5.4-14.4-9.4-22-13.3-10.1-5.2-20.6-9.8-31.1-14.2a760.7 760.7 0 0 0-73-26.2c-11.3-3.4-22.6-6.6-34-9.2a221.6 221.6 0 0 0-26.1-4.7 57.9 57.9 0 0 0-9.8-.4 10.9 10.9 0 0 0-4.2.8c-1 .5-.3 1.2.3 2z" stroke="#d32a2e" stroke-miterlimit="10"/><path d="M220.7 187.8c-4.4-8.3-25.4-26-19.8-36.5.6-1.1 7.1-2.9 8.3-4.3 3.7-4.2 5-16.5 7.4-22.2l-31-11.4c-4.6 10.1-3.7 30.5-14 35.9a57.5 57.5 0 0 1-7-17.1c-1.4-6 .7-15-2-20.5-5.7-11.4-18.6-7.6-21.4 3.3-7.6 29.5 21.4 58.9 41.8 74.4 2 3.1 9.1 10.5 9.5 14.5s-5.4 6.9-5.4 8.7c5 3 30.8-1.1 35.2-4.1 9.4-6.5 3.6-11.1-1.4-20.7zm-27.6 16.9c.1.1.2 1.1 0 0z" stroke="#232323" stroke-linecap="round" stroke-linejoin="round"/></g><circle cx="207.9" cy="276.6" r="19" fill="#ececec" stroke="#0a5f84" stroke-linecap="round" stroke-linejoin="round" stroke-width="2"/><circle cx="207.9" cy="276.6" r="9.3" fill="#ececec" stroke="#0a5f84" stroke-linecap="round" stroke-linejoin="round" stroke-width="2"/><circle cx="664.6" cy="741.4" r="15" fill="#ececec" stroke="#0e7ea5" stroke-linecap="round" stroke-linejoin="round" stroke-width="2"/><circle cx="664.6" cy="741.4" r="7.3" fill="#ececec" stroke="#0e7ea5" stroke-linecap="round" stroke-linejoin="round" stroke-width="2"/><circle cx="230.6" cy="171.4" r="11.9" fill="#fff" stroke="#e94a1b" stroke-miterlimit="10" stroke-width="2"/><circle cx="230.6" cy="171.4" r="5.8" fill="#fff" stroke="#e94a1b" stroke-miterlimit="10" stroke-width="2"/><path fill="#232323" stroke="#232323" stroke-linecap="round" stroke-linejoin="round" stroke-width="2" d="M253.6 773.6h78v23h-78zm383.5 0h78v23h-78z"/><circle cx="308.2" cy="738.7" r="15" fill="#ececec" stroke="#0e7ea5" stroke-linecap="round" stroke-linejoin="round" stroke-width="2"/><circle cx="308.2" cy="738.7" r="7.3" fill="#ececec" stroke="#0e7ea5" stroke-linecap="round" stroke-linejoin="round" stroke-width="2"/><path d="M218.7 215.5s.5 25.1 33 18.4l66 6.9-.8 8-24 25.4-15.2-1.8-83.2-54.6z" fill="none" stroke="#e94a1b" stroke-miterlimit="10" stroke-width="3"/><path fill="none" stroke="#e94a1b" stroke-miterlimit="10" stroke-width="2" d="M141 151.4l4.4 5.3 41.9 45.3-5 6.9-69.3-43.1 28-14.4z"/><script xlink:href="https://cdnjs.cloudflare.com/ajax/libs/gsap/1.18.4/TweenMax.min.js" type="text/javascript"/><script xlink:href="/j/hero.min.js" type="text/javascript"/></svg>